<?xml version="1.0" encoding="utf-8"?>
<!-- Generator: Adobe Illustrator 23.0.5, SVG Export Plug-In . SVG Version: 6.00 Build 0)  -->
<svg version="1.1" id="Capa_1" xmlns="http://www.w3.org/2000/svg" xmlns:xlink="http://www.w3.org/1999/xlink" x="0px" y="0px"
	 viewBox="0 0 256 256" style="enable-background:new 0 0 256 256;" xml:space="preserve">
<style type="text/css">
	.st0{fill-rule:evenodd;clip-rule:evenodd;}
</style>
<path class="st0" d="M112.5,4.4c30.3-3.2,62.4,2.2,88.1,20.1c17.6,11.9,31.2,29.7,38.9,50c9.3,24.1,10.4,50.9,6,76.3
	c-5,28-18.8,54.5-39.9,72.8c-20.5,18.3-47.4,28-74.3,28.8c-26.5,1-53.9-5.3-75.6-21.7C35,215.5,20.5,192.2,13.5,167
	C3.9,134,7.3,97.3,23.2,67.1c9.6-19.1,24-35.7,41.9-46.7C79.5,11.4,95.9,6.3,112.5,4.4L112.5,4.4z M134.6,23.8v207.6
	c4.6-0.2,9.2-0.7,13.7-1.4V26.3C143.9,25.1,139.3,24.3,134.6,23.8L134.6,23.8z M121.6,231.1V23.2c-4.7,0.1-9.3,0.5-13.7,1.3v204.3
	C112.4,229.9,117,230.6,121.6,231.1L121.6,231.1z M95,224.6V28c-28,10-47.2,34.9-51.8,68.7c-3.2,23.7-1.6,48.3,5.8,71
	c6.5,20.5,17.8,40.9,35.7,51.7C87.9,221.3,91.4,223.1,95,224.6L95,224.6z M161.3,30.6v196.2c11.9-3.7,22.4-9.6,29.8-17
	c15.9-18.5,22-43.9,23.1-68.1c1.6-30.2-3.8-62.3-21.5-87.1C185.7,44.9,174.8,36.4,161.3,30.6L161.3,30.6z"/>
</svg>
